HIERARCHY
ROOT Scene_Root
{
	OFFSET 0 0 0
	CHANNELS 6 Xposition Yposition Zposition Zrotation Xrotation Yrotation
	JOINT Main__Hips_
	{
		OFFSET 0 0.333497 -1.08208
		CHANNELS 3 Zrotation Xrotation Yrotation
		JOINT LeftUpperLeg
		{
			OFFSET 0.1 -0.0114287 0.0486764
			CHANNELS 3 Zrotation Xrotation Yrotation
			JOINT LeftLowerLeg
			{
				OFFSET 0.013 0.0213623 0.420376
				CHANNELS 3 Zrotation Xrotation Yrotation
				JOINT LeftFoot
				{
					OFFSET -0.013 0.0293962 0.449911
					CHANNELS 3 Zrotation Xrotation Yrotation
					JOINT LeftToes
					{
						OFFSET 0 0.107002 0.0753362
						CHANNELS 3 Zrotation Xrotation Yrotation
						End Site
						{
							OFFSET 0 0 0
						}
					}
				}
			}
		}
		JOINT RightUpperLeg
		{
			OFFSET -0.1 -0.0114287 0.0486764
			CHANNELS 3 Zrotation Xrotation Yrotation
			JOINT RightLowerLeg
			{
				OFFSET -0.023 0.0213623 0.420376
				CHANNELS 3 Zrotation Xrotation Yrotation
				JOINT RightFoot
				{
					OFFSET 0.013 -0.00286508 0.450861
					CHANNELS 3 Zrotation Xrotation Yrotation
					JOINT RightToes
					{
						OFFSET 0 0.101339 0.082798
						CHANNELS 3 Zrotation Xrotation Yrotation
						End Site
						{
							OFFSET 0 0 0
						}
					}
				}
			}
		}
		JOINT LowerBack
		{
			OFFSET 0 0.0205716 -0.0876174
			CHANNELS 3 Zrotation Xrotation Yrotation
			JOINT Back
			{
				OFFSET 0 0.045839 -0.132283
				CHANNELS 3 Zrotation Xrotation Yrotation
				JOINT Chest
				{
					OFFSET 0 0.0818911 -0.160293
					CHANNELS 3 Zrotation Xrotation Yrotation
					JOINT Neck
					{
						OFFSET 0 0.107889 -0.182179
						CHANNELS 3 Zrotation Xrotation Yrotation
						JOINT Jaw
						{
							OFFSET 0 0.118895 0.0341752
							CHANNELS 3 Zrotation Xrotation Yrotation
							End Site
							{
								OFFSET 0 0 0
							}
						}
					}
					JOINT LeftUpperArm
					{
						OFFSET 0.195 0.0321844 -0.114408
						CHANNELS 3 Zrotation Xrotation Yrotation
						JOINT LeftLowerArm
						{
							OFFSET 0.204101 0.206807 0.177267
							CHANNELS 3 Zrotation Xrotation Yrotation
							JOINT LeftHand
							{
								OFFSET 0.0234663 0.217604 0.0533638
								CHANNELS 3 Zrotation Xrotation Yrotation
								JOINT LTumb1
								{
									OFFSET 0.0507314 0.0496635 0.0237774
									CHANNELS 3 Zrotation Xrotation Yrotation
									JOINT LTumb2
									{
										OFFSET 0.0272682 0.02811 0.00651801
										CHANNELS 3 Zrotation Xrotation Yrotation
										End Site
										{
											OFFSET 0 0 0
										}
									}
								}
								JOINT LForeFinger1
								{
									OFFSET 0.0346138 0.11121 0.0302093
									CHANNELS 3 Zrotation Xrotation Yrotation
									JOINT LForeFinger2
									{
										OFFSET 0.00712675 0.0296934 0.00280035
										CHANNELS 3 Zrotation Xrotation Yrotation
										JOINT LForeFinger3
										{
											OFFSET 0.00514743 0.0239427 0.00288153
											CHANNELS 3 Zrotation Xrotation Yrotation
											End Site
											{
												OFFSET 0 0 0
											}
										}
									}
								}
								JOINT LMiddleFinger1
								{
									OFFSET 0.00443164 0.116544 0.0293325
									CHANNELS 3 Zrotation Xrotation Yrotation
									JOINT LMiddleFinger2
									{
										OFFSET 0.00547066 0.0321407 0.00380921
										CHANNELS 3 Zrotation Xrotation Yrotation
										JOINT LMiddleFinger3
										{
											OFFSET 0.0032016 0.0277876 0.00574243
											CHANNELS 3 Zrotation Xrotation Yrotation
											End Site
											{
												OFFSET 0 0 0
											}
										}
									}
								}
								JOINT LRingFinger1
								{
									OFFSET -0.0247682 0.117359 0.0247467
									CHANNELS 3 Zrotation Xrotation Yrotation
									JOINT LRingFinger2
									{
										OFFSET -0.00228947 0.0286206 0.00195527
										CHANNELS 3 Zrotation Xrotation Yrotation
										JOINT LRingFinger3
										{
											OFFSET -0.00228044 0.0248153 0.00352204
											CHANNELS 3 Zrotation Xrotation Yrotation
											End Site
											{
												OFFSET 0 0 0
											}
										}
									}
								}
								JOINT LLittleFinger1
								{
									OFFSET -0.0547365 0.106481 0.0205122
									CHANNELS 3 Zrotation Xrotation Yrotation
									JOINT LLittleFinger2
									{
										OFFSET -0.00425085 0.0164392 -0.00438845
										CHANNELS 3 Zrotation Xrotation Yrotation
										JOINT LLittleFinger3
										{
											OFFSET -0.00726715 0.0225947 9.34601e-005
											CHANNELS 3 Zrotation Xrotation Yrotation
											End Site
											{
												OFFSET 0 0 0
											}
										}
									}
								}
							}
						}
					}
					JOINT RightUpperArm
					{
						OFFSET -0.195 0.0321844 -0.114408
						CHANNELS 3 Zrotation Xrotation Yrotation
						JOINT RightLowerArm
						{
							OFFSET -0.263042 -0.059893 0.207537
							CHANNELS 3 Zrotation Xrotation Yrotation
							JOINT RightHand
							{
								OFFSET -0.156718 0.0193797 0.160667
								CHANNELS 3 Zrotation Xrotation Yrotation
								JOINT RTumb1
								{
									OFFSET -0.0747896 0.00344858 -0.00048089
									CHANNELS 3 Zrotation Xrotation Yrotation
									JOINT RTumb2
									{
										OFFSET -0.0388624 0.00811681 0.000195503
										CHANNELS 3 Zrotation Xrotation Yrotation
										End Site
										{
											OFFSET 0 0 0
										}
									}
								}
								JOINT RForeFinger1
								{
									OFFSET -0.106645 0.0137769 0.0539945
									CHANNELS 3 Zrotation Xrotation Yrotation
									JOINT RForeFinger2
									{
										OFFSET -0.0251662 0.00815815 0.0155061
										CHANNELS 3 Zrotation Xrotation Yrotation
										JOINT RForeFinger3
										{
											OFFSET -0.0201192 0.0058828 0.0129869
											CHANNELS 3 Zrotation Xrotation Yrotation
											End Site
											{
												OFFSET 0 0 0
											}
										}
									}
								}
								JOINT RMiddleFinger1
								{
									OFFSET -0.089753 0.010414 0.0793635
									CHANNELS 3 Zrotation Xrotation Yrotation
									JOINT RMiddleFinger2
									{
										OFFSET -0.0260301 0.00767228 0.0184671
										CHANNELS 3 Zrotation Xrotation Yrotation
										JOINT RMiddleFinger3
										{
											OFFSET -0.0223736 0.00406167 0.0172713
											CHANNELS 3 Zrotation Xrotation Yrotation
											End Site
											{
												OFFSET 0 0 0
											}
										}
									}
								}
								JOINT RRingFinger1
								{
									OFFSET -0.0692194 0.00925985 0.100607
									CHANNELS 3 Zrotation Xrotation Yrotation
									JOINT RRingFinger2
									{
										OFFSET -0.0179 0.00677571 0.0214914
										CHANNELS 3 Zrotation Xrotation Yrotation
										JOINT RRingFinger3
										{
											OFFSET -0.015983 0.00412089 0.0189992
											CHANNELS 3 Zrotation Xrotation Yrotation
											End Site
											{
												OFFSET 0 0 0
											}
										}
									}
								}
								JOINT RLittleFinger1
								{
									OFFSET -0.0406554 0.00393838 0.114397
									CHANNELS 3 Zrotation Xrotation Yrotation
									JOINT RLittleFinger2
									{
										OFFSET -0.00633878 0.00844061 0.0140054
										CHANNELS 3 Zrotation Xrotation Yrotation
										JOINT RLittleFinger3
										{
											OFFSET -0.00997818 0.0056358 0.020785
											CHANNELS 3 Zrotation Xrotation Yrotation
											End Site
											{
												OFFSET 0 0 0
											}
										}
									}
								}
							}
						}
					}
				}
			}
		}
	}
}
MOTION
Frames: 5
Frame Time: 0.050000
0 0 0 0 0 0 -180 83.2132 -180 -12.4169 -68.4344 18.1152 167.594 43.8321 -175.801 0 -10.8985 0 0 -46.7962 0 14.4535 -68.6999 -21.1566 -165.452 46.9058 175.047 0 -10.8985 0 0 -42.692 0 0 14.1008 0 0 47.0506 0 0 9.10076 0 -180 -77.4635 -180 0 -1.67028e-006 0 49.9131 44.7843 61.6234 -40.4103 38.6466 95.378 5.91218 16.848 0.105663 33.3212 -28.4485 28.4982 -3.81868e-008 -5.74067e-007 1.63323e-007 -0.851363 49.3736 -7.72281 -3.81868e-008 -5.74067e-007 1.63323e-007 -3.81868e-008 -5.74067e-007 1.63323e-007 -0.851363 49.3736 -7.72281 -3.81868e-008 -5.74067e-007 1.63323e-007 -3.81868e-008 -5.74067e-007 1.63323e-007 -0.851363 49.3736 -7.72281 -3.81868e-008 -5.74067e-007 1.63323e-007 -3.81868e-008 -5.74067e-007 1.63323e-007 -1.33461 39.4962 -5.85841 -3.81868e-008 -5.74067e-007 1.63323e-007 -3.81868e-008 -5.74067e-007 1.63323e-007 -93.6702 -7.6715 -26.1471 -73.1168 61.8666 31.4797 10.3837 22.8053 11.1889 -32.9092 -12.0852 21.6691 5.13513e-007 1.01567e-007 1.94253e-006 37.3387 24.1786 -20.0717 3.61439 3.22413 -1.34916 5.13513e-007 1.01567e-007 1.94253e-006 52.8394 28.4534 -30.7423 5.13513e-007 1.01567e-007 1.94253e-006 5.13513e-007 1.01567e-007 1.94253e-006 47.5131 27.3194 -27.0021 5.13513e-007 1.01567e-007 1.94253e-006 5.13513e-007 1.01567e-007 1.94253e-006 37.3387 24.1786 -20.0717 5.13513e-007 1.01567e-007 1.94253e-006 5.13513e-007 1.01567e-007 1.94253e-006 
0 0 0 0 0 0 0 88.0368 0 -11.3398 -47.9941 13.6629 155.553 75.197 -161.844 0 -7.1485 0 0 -33.0462 0 13.2293 -48.1018 -15.9393 -146.549 78.0815 153.974 0 -7.1485 0 0 -28.942 0 0 11.6008 0 0 35.8006 0 0 7.85076 0 0 -71.2866 0 0 -1.67028e-006 0 38.7509 44.644 44.986 -25.8747 33.9323 67.9771 2.41703 12.785 1.35434 23.0756 -22.9692 19.3023 -3.81868e-008 -5.74067e-007 1.63323e-007 -1.38216 37.0256 -5.44862 -3.81868e-008 -5.74067e-007 1.63323e-007 -3.81868e-008 -5.74067e-007 1.63323e-007 -1.38216 37.0256 -5.44862 -3.81868e-008 -5.74067e-007 1.63323e-007 -3.81868e-008 -5.74067e-007 1.63323e-007 -1.38216 37.0256 -5.44862 -3.81868e-008 -5.74067e-007 1.63323e-007 -3.81868e-008 -5.74067e-007 1.63323e-007 -1.39553 29.613 -4.29888 -3.81868e-008 -5.74067e-007 1.63323e-007 -3.81868e-008 -5.74067e-007 1.63323e-007 -70.023 -15.5223 -17.2935 -44.0486 47.5823 12.4026 8.1221 16.9293 8.68593 -25.0597 -7.93781 16.9088 5.13513e-007 1.01567e-007 1.94253e-006 26.768 19.4381 -13.3181 2.70297 2.42619 -0.992553 5.13513e-007 1.01567e-007 1.94253e-006 37.3387 24.1786 -20.0716 5.13513e-007 1.01567e-007 1.94253e-006 5.13513e-007 1.01567e-007 1.94253e-006 33.7091 22.7285 -17.6912 5.13513e-007 1.01567e-007 1.94253e-006 5.13513e-007 1.01567e-007 1.94253e-006 26.768 19.4381 -13.3181 5.13513e-007 1.01567e-007 1.94253e-006 5.13513e-007 1.01567e-007 1.94253e-006 
0 0 0 0 0 0 0 79.2868 0 -8.77486 -27.6442 9.87833 9.73005 71.5041 -14.2353 0 -3.39851 0 0 -19.2962 0 10.2411 -27.626 -11.5263 -8.33538 67.8275 13.7052 0 -3.39851 0 0 -15.192 0 0 9.10077 0 0 24.5506 0 0 6.60077 0 0 -40.0366 0 0 -1.67028e-006 0 27.8097 46.789 28.3283 -16.0764 24.6395 44.399 -0.94089 8.6572 2.33365 14.2393 -16.194 11.5936 -3.81868e-008 -5.74067e-007 1.63323e-007 -1.31314 24.6717 -3.57549 -3.81868e-008 -5.74067e-007 1.63323e-007 -3.81868e-008 -5.74067e-007 1.63323e-007 -1.31314 24.6717 -3.57549 -3.81868e-008 -5.74067e-007 1.63323e-007 -3.81868e-008 -5.74067e-007 1.63323e-007 -1.31314 24.6717 -3.57549 -3.81868e-008 -5.74067e-007 1.63323e-007 -3.81868e-008 -5.74067e-007 1.63323e-007 -1.16743 19.7318 -2.86961 -3.81868e-008 -5.74067e-007 1.63323e-007 -3.81868e-008 -5.74067e-007 1.63323e-007 -44.6802 -19.0661 -5.61913 -26.9752 30.2696 6.50835 5.6584 11.1554 6.01188 -16.9501 -4.48147 11.66 5.13513e-007 1.01567e-007 1.94253e-006 17.1202 13.6714 -7.74613 1.79698 1.6227 -0.64887 5.13513e-007 1.01567e-007 1.94253e-006 23.454 17.6172 -11.3293 5.13513e-007 1.01567e-007 1.94253e-006 5.13513e-007 1.01567e-007 1.94253e-006 21.3004 16.3448 -10.0768 5.13513e-007 1.01567e-007 1.94253e-006 5.13513e-007 1.01567e-007 1.94253e-006 17.1202 13.6714 -7.74613 5.13513e-007 1.01567e-007 1.94253e-006 5.13513e-007 1.01567e-007 1.94253e-006 
0 0 0 0 0 0 0 70.5369 0 -5.16265 -7.48489 5.60326 1.0775 39.9977 -3.62892 0 0.351491 0 0 -5.54616 0 6.02542 -7.40936 -6.53867 -0.88111 36.0992 3.95692 0 0.351491 0 0 -1.44197 0 0 6.60077 0 0 13.3006 0 0 5.35077 0 0 -8.78658 0 0 -1.67028e-006 0 17.6156 51.0474 11.5229 -11.3616 12.8414 24.115 -4.19976 4.48073 3.06087 6.63132 -8.45176 5.22724 -3.81868e-008 -5.74067e-007 1.63323e-007 -0.838835 12.3259 -1.81814 -3.81868e-008 -5.74067e-007 1.63323e-007 -3.81868e-008 -5.74067e-007 1.63323e-007 -0.838835 12.3259 -1.81814 -3.81868e-008 -5.74067e-007 1.63323e-007 -3.81868e-008 -5.74067e-007 1.63323e-007 -0.838835 12.3259 -1.81814 -3.81868e-008 -5.74067e-007 1.63323e-007 -3.81868e-008 -5.74067e-007 1.63323e-007 -0.700658 9.85873 -1.46441 -3.81868e-008 -5.74067e-007 1.63323e-007 -3.81868e-008 -5.74067e-007 1.63323e-007 -18.9866 -17.4444 6.57689 -13.6844 12.3737 6.60207 2.96298 5.50393 3.13023 -8.58336 -1.80882 5.99212 5.13513e-007 1.01567e-007 1.94253e-006 8.26427 7.12215 -3.32872 0.896103 0.813893 -0.318041 5.13513e-007 1.01567e-007 1.94253e-006 11.1397 9.37852 -4.67683 5.13513e-007 1.01567e-007 1.94253e-006 5.13513e-007 1.01567e-007 1.94253e-006 10.1734 8.63389 -4.21387 5.13513e-007 1.01567e-007 1.94253e-006 5.13513e-007 1.01567e-007 1.94253e-006 8.26427 7.12215 -3.32872 5.13513e-007 1.01567e-007 1.94253e-006 5.13513e-007 1.01567e-007 1.94253e-006 
0 0 0 0 0 0 0 61.7869 0 0 12.308 0 0 8.20385 0 0 4.10149 0 0 8.20384 0 0 12.308 0 0 4.10149 0 0 4.10149 0 0 12.308 0 0 4.10077 0 0 2.05059 0 0 4.10077 0 0 22.4634 0 0 -1.67028e-006 0 8.83397 57.0875 -5.85529 -11.0885 0.233382 5.32333 -7.39557 0.270249 3.54752 -3.81868e-008 -5.74067e-007 1.63323e-007 -3.81868e-008 -5.74067e-007 1.63323e-007 -3.81868e-008 -5.74067e-007 1.63323e-007 -3.81868e-008 -5.74067e-007 1.63323e-007 -3.81868e-008 -5.74067e-007 1.63323e-007 -3.81868e-008 -5.74067e-007 1.63323e-007 -3.81868e-008 -5.74067e-007 1.63323e-007 -3.81868e-008 -5.74067e-007 1.63323e-007 -3.81868e-008 -5.74067e-007 1.63323e-007 -3.81868e-008 -5.74067e-007 1.63323e-007 -3.81868e-008 -5.74067e-007 1.63323e-007 -3.81868e-008 -5.74067e-007 1.63323e-007 -3.81868e-008 -5.74067e-007 1.63323e-007 -3.81868e-008 -5.74067e-007 1.63323e-007 5.37413 -11.0645 16.6938 -0.628232 -5.03903 10.7584 5.13513e-007 1.01567e-007 1.94253e-006 5.13513e-007 1.01567e-007 1.94253e-006 5.13513e-007 1.01567e-007 1.94253e-006 5.13513e-007 1.01567e-007 1.94253e-006 5.13513e-007 1.01567e-007 1.94253e-006 5.13513e-007 1.01567e-007 1.94253e-006 5.13513e-007 1.01567e-007 1.94253e-006 5.13513e-007 1.01567e-007 1.94253e-006 5.13513e-007 1.01567e-007 1.94253e-006 5.13513e-007 1.01567e-007 1.94253e-006 5.13513e-007 1.01567e-007 1.94253e-006 5.13513e-007 1.01567e-007 1.94253e-006 5.13513e-007 1.01567e-007 1.94253e-006 5.13513e-007 1.01567e-007 1.94253e-006 5.13513e-007 1.01567e-007 1.94253e-006 
